PathFileType	4	(X/Y/Z)	c:/Users/goper/Files/vsCode/490R/osim_files/C10/C10_Slow_02.trc
DataRate	CameraRate	NumFrames	NumMarkers	Units                	OrigDataRate	OrigDataStartFrame	OrigNumFrames
250.00	250.00	6	36	mm	250.0	981	2614
                Frame#	Time	LPSIS			LASIS			LTH1			LTH2			LTH3			LTH4			LLFE			LMFE			LSH1			LSH2			LSH3			LSH4			LLMAL			LMMAL			LCAL			LMTP5			LTOE			LMTP1			RPSIS			RASIS			RTH1			RTH2			RTH3			RTH4			RLFE			RMFE			RSH1			RSH2			RSH3			RSH4			RLMAL			RMMAL			RCAL			RMTP1			RTOE			RMTP5		
		X1	Y1	Z1	X2	Y2	Z2	X3	Y3	Z3	X4	Y4	Z4	X5	Y5	Z5	X6	Y6	Z6	X7	Y7	Z7	X8	Y8	Z8	X9	Y9	Z9	X10	Y10	Z10	X11	Y11	Z11	X12	Y12	Z12	X13	Y13	Z13	X14	Y14	Z14	X15	Y15	Z15	X16	Y16	Z16	X17	Y17	Z17	X18	Y18	Z18	X19	Y19	Z19	X20	Y20	Z20	X21	Y21	Z21	X22	Y22	Z22	X23	Y23	Z23	X24	Y24	Z24	X25	Y25	Z25	X26	Y26	Z26	X27	Y27	Z27	X28	Y28	Z28	X29	Y29	Z29	X30	Y30	Z30	X31	Y31	Z31	X32	Y32	Z32	X33	Y33	Z33	X34	Y34	Z34	X35	Y35	Z35	X36	Y36	Z36

981	3.92000	353.75653	1009.67450	221.46101	206.49979	986.64032	373.20511	297.70654	766.19647	415.62454	296.81134	717.52222	410.94781	236.85382	759.44202	405.44504	247.80008	714.22302	396.41403	339.60284	478.11755	330.67148	338.13647	472.64664	212.42181	419.66025	408.53403	330.75388	424.73947	359.30609	333.69208	356.22931	390.48206	322.51913	373.87125	347.92389	321.97040	465.27426	91.59161	268.98959	0.00000	0.00000	0.00000	532.80109	42.89315	227.45122	360.36917	31.35912	285.84647	307.41968	51.32025	221.78186	345.59775	29.22293	175.46994	343.72290	995.60748	143.93768	182.62973	964.46155	40.23044	203.45018	692.63556	4.13470	177.50743	656.47772	5.40543	151.37537	722.52179	-6.25472	131.51215	682.65649	-2.46629	23.41373	492.05734	67.20276	9.28023	494.14700	181.29651	43.35427	385.17511	55.19886	20.42481	347.76114	54.06403	-13.86070	411.11618	61.73420	-27.21048	369.60098	58.11082	-115.66840	114.84587	98.12340	-145.29721	122.97321	182.59782	-86.86242	43.21233	136.63457	-259.07849	125.42914	174.31310	-278.69650	158.11978	139.05089	-247.18748	121.66929	76.57755
982	3.92400	349.01385	1009.01685	220.90395	202.24721	985.77930	373.21402	293.40717	765.48126	415.20502	293.40656	717.14825	410.75580	233.34189	758.80414	405.36081	244.41589	713.68005	396.34018	337.13290	477.93381	330.41940	335.30457	472.24988	212.31117	417.49838	408.74954	330.49631	423.31238	359.81784	333.43259	354.29987	390.34940	322.40091	372.46530	347.94058	321.98611	464.95804	92.05112	268.87463	0.00000	0.00000	0.00000	532.89105	43.29829	227.58994	360.36856	31.40771	285.95264	307.38327	51.23911	221.77925	345.72888	29.36206	175.35060	339.00461	994.97662	143.36661	177.53880	963.77875	40.27510	199.25444	691.73694	4.27502	173.45238	655.47131	5.57268	147.38820	721.46387	-6.41891	127.36922	681.44757	-2.41106	18.34841	491.27933	66.90195	5.48666	493.10562	181.64539	38.01125	384.14557	55.48143	14.66137	346.93787	54.34628	-18.70229	411.26215	61.39264	-32.67720	369.16278	58.49828	-123.80129	115.37442	98.60367	-153.44302	123.91173	183.23630	-95.69536	43.45077	137.14745	-266.82553	127.39004	174.92810	-286.32169	160.26120	139.63361	-255.04190	123.37021	77.35357
983	3.92800	344.21893	1008.31458	220.31149	197.90092	984.98346	373.16711	292.97696	766.31134	415.36923	289.91016	716.83307	410.57706	229.58223	758.20636	405.23477	240.90067	713.12439	396.23566	334.47168	477.68253	330.34174	332.43463	471.89914	212.18332	415.37003	408.98990	330.24103	421.47342	360.20975	333.19928	352.28116	390.22870	322.32834	370.28400	347.89645	321.74976	464.63705	92.52546	268.75815	0.00000	0.00000	0.00000	532.65759	43.82575	227.25417	360.38315	31.43581	285.94263	307.34970	51.15514	221.75926	345.76114	29.35464	175.26866	334.22971	994.27063	142.81010	172.46957	963.11938	40.31009	194.92230	691.14832	4.42215	169.19385	654.61139	5.66021	142.54861	720.40204	-6.25231	123.05016	680.31506	-2.34456	13.85882	490.43558	67.33242	1.79199	492.04199	182.15782	32.89973	383.10825	55.86955	9.17389	346.08719	54.72512	-23.73089	410.57037	61.83089	-37.95012	368.63620	58.83255	-131.31168	115.79737	99.22871	-161.11426	124.71227	183.91620	-103.85424	43.63354	137.81403	-274.36652	129.05685	175.48306	-293.49109	161.99750	140.16136	-262.07080	124.60533	78.40957
984	3.93200	339.43375	1007.61163	219.71092	193.47029	984.18884	373.13611	285.98019	764.81427	414.75757	286.28369	716.49371	410.41049	225.79492	757.68292	405.15604	237.21095	712.60675	396.13306	331.82104	477.52219	330.23087	329.54532	471.57739	212.06937	413.12198	409.31589	329.98270	419.08063	360.26227	333.02289	350.00742	390.17215	322.28116	368.71442	347.94226	321.87314	464.29517	93.05833	268.61203	0.00000	0.00000	0.00000	532.47510	44.40430	227.09929	360.35538	31.46345	285.89792	307.21722	51.07933	221.73402	345.92871	29.48783	175.13866	329.41336	993.55170	142.23801	167.42883	962.44110	40.35685	190.28262	690.38861	4.32777	164.79344	653.89136	5.71700	137.87297	719.59833	-6.24008	118.54484	679.38068	-2.28926	9.25489	489.56189	67.59168	-2.31910	491.19974	182.50693	27.94154	382.07465	56.36819	3.97207	345.19931	55.15428	-28.46020	409.93268	62.10780	-43.02050	368.07040	59.13768	-138.31316	115.94420	99.93309	-168.29350	125.35979	184.61765	-111.42580	43.71393	138.71809	-281.40103	130.34547	176.02977	-300.11548	163.34077	140.58595	-269.45074	125.69061	78.31741
985	3.93600	334.60864	1006.93848	219.07996	188.68959	982.91913	374.54636	282.11292	764.53204	414.53979	282.49777	716.15973	410.23621	221.90091	757.18719	405.08829	233.51251	712.12280	396.02640	329.02817	477.37173	330.13730	326.53198	471.27454	211.97395	410.85458	409.61591	329.75607	417.46671	360.81702	332.74933	347.75891	390.07166	322.13843	366.73764	347.98260	321.68921	463.98416	93.60806	268.49878	0.00000	0.00000	0.00000	532.29791	45.13238	227.00282	360.29944	31.49175	285.85364	307.11633	50.99730	221.71140	345.86264	29.45699	175.15433	324.59183	992.87720	141.64310	162.34979	961.79010	40.37420	185.54704	689.87512	4.23035	160.31354	653.32483	5.71931	133.03076	718.89233	-6.28079	113.72122	678.66730	-2.22784	4.68770	488.72836	67.80624	-6.52895	490.47720	182.86786	23.18846	381.03491	56.87663	-1.11889	344.26840	55.65407	-33.10675	409.20059	62.42787	-47.93049	367.35654	59.43729	-144.70752	115.90330	100.70800	-174.96326	125.83919	185.32083	-118.34645	43.61850	139.77075	-287.91525	131.30988	176.46049	-306.11942	164.13176	141.12350	-275.75470	126.19372	78.81467
986	3.94000	329.76208	1006.23273	218.45502	184.23451	982.15765	374.43732	278.22684	764.25867	414.31458	278.96979	715.99048	410.08209	218.03397	756.67474	404.95169	229.84479	711.65887	395.92200	326.26138	477.30963	329.98785	323.50360	471.02438	211.88882	408.55408	409.95648	329.49124	415.08258	361.03906	332.51489	345.63037	390.08960	322.09753	364.88788	348.10410	321.69647	463.54816	94.24882	268.39978	0.00000	0.00000	0.00000	532.10925	46.07323	226.94632	360.28702	31.53358	285.81369	307.00180	50.90590	221.67451	345.92462	29.56521	175.05678	319.74335	992.18542	141.06055	157.21837	961.14294	40.35088	180.48746	689.42688	4.05144	155.73758	652.95532	5.81516	127.91805	718.39490	-6.33402	108.75459	678.10333	-2.17674	0.02000	487.93362	67.99026	-10.89645	489.88330	183.13324	18.54380	379.98904	57.55356	-6.28066	342.98355	55.72665	-37.60538	408.39526	62.76093	-53.21214	366.80966	59.26907	-150.59727	115.63326	101.54351	-181.10602	126.13543	186.00586	-124.60400	43.41464	140.99181	-293.90149	131.87401	176.88954	-312.40912	164.79309	140.91000	-281.54663	126.21717	79.25206
